<svg width="55" height="55" viewBox="0 0 55 55" fill="none" xmlns="http://www.w3.org/2000/svg">
<g filter="url(#filter0_i)">
<path d="M37.8631 18.8037H42.998C44.1226 18.8037 45.0424 17.8832 45.0424 16.7581V11.863C45.0424 10.7373 44.1226 9.81744 42.998 9.81744H37.8631C36.738 9.81744 35.8182 10.7373 35.8182 11.863V16.7581C35.8182 17.8832 36.738 18.8037 37.8631 18.8037Z" fill="#C88C6A"/>
<path d="M27.5276 36.226C32.5665 36.226 36.6513 32.2682 36.6513 27.3859C36.6513 22.5037 32.5665 18.5459 27.5276 18.5459C22.4888 18.5459 18.404 22.5037 18.404 27.3859C18.404 32.2682 22.4888 36.226 27.5276 36.226Z" fill="#C88C6A"/>
<path d="M52.045 0H2.92388C1.30931 0 0 1.30931 0 2.92388V52.045C0 53.6596 1.30931 54.9689 2.92388 54.9689H52.045C53.6601 54.9689 54.9689 53.6596 54.9689 52.045V2.92388C54.9689 1.30931 53.6601 0 52.045 0ZM50.1989 44.3681C50.1989 47.8247 47.575 50.1989 44.3681 50.1989H10.6008C7.3939 50.1989 4.77001 47.8247 4.77001 44.3681V10.6008C4.77001 7.1442 7.39331 4.77001 10.6008 4.77001H44.3681C47.5744 4.77001 50.1989 7.1442 50.1989 10.6008V44.3681Z" fill="#C88C6A"/>
<path d="M41.6485 27.8797C41.6485 35.4361 35.3259 41.5611 27.5285 41.5611C19.7299 41.5611 13.4079 35.4356 13.4079 27.8797C13.4079 26.5253 13.6126 25.2172 13.9909 23.9816H9.81796V43.171C9.81796 44.1639 10.6314 44.9768 11.6243 44.9768H43.2601C44.2525 44.9768 45.0659 44.1639 45.0659 43.171V23.9816H41.0672C41.4438 25.2172 41.6485 26.5248 41.6485 27.8797Z" fill="#C88C6A"/>
</g>
<defs>
<filter id="filter0_i" x="0" y="0" width="54.9689" height="58.9689" filterUnits="userSpaceOnUse" color-interpolation-filters="sRGB">
<feFlood flood-opacity="0" result="BackgroundImageFix"/>
<feBlend mode="normal" in="SourceGraphic" in2="BackgroundImageFix" result="shape"/>
<feColorMatrix in="SourceAlpha" type="matrix" values="0 0 0 0 0 0 0 0 0 0 0 0 0 0 0 0 0 0 127 0" result="hardAlpha"/>
<feOffset dy="4"/>
<feGaussianBlur stdDeviation="4.5"/>
<feComposite in2="hardAlpha" operator="arithmetic" k2="-1" k3="1"/>
<feColorMatrix type="matrix" values="0 0 0 0 0 0 0 0 0 0 0 0 0 0 0 0 0 0 0.25 0"/>
<feBlend mode="normal" in2="shape" result="effect1_innerShadow"/>
</filter>
</defs>
</svg>
