<svg width="55" height="55" viewBox="0 0 55 55" fill="none" xmlns="http://www.w3.org/2000/svg">
<g filter="url(#filter0_i)">
<path d="M52.045 0H2.92388C1.30873 0 0 1.30931 0 2.92388V52.045C0 53.6596 1.30873 54.9689 2.92388 54.9689H52.045C53.6601 54.9689 54.9689 53.6596 54.9689 52.045V2.92388C54.9689 1.30931 53.6601 0 52.045 0ZM43.7815 30.9598C45.2797 32.4217 46.8639 33.7983 48.2095 35.414C48.8048 36.1274 49.3661 36.8642 49.7936 37.694C50.4024 38.8776 49.8527 40.1776 48.7919 40.2472L42.2097 40.2454C40.5103 40.3852 39.1571 39.701 38.0157 38.539C37.1063 37.6122 36.2607 36.6227 35.3842 35.6654C35.0269 35.2719 34.6479 34.9017 34.2 34.6093C33.303 34.0269 32.5234 34.2047 32.0083 35.1409C31.4843 36.0941 31.3633 37.1514 31.3153 38.2139C31.2422 39.7665 30.7744 40.1717 29.2171 40.2436C25.8898 40.4004 22.7314 39.8951 19.7976 38.2186C17.2076 36.7391 15.2047 34.6491 13.4598 32.2854C10.0587 27.6757 7.45413 22.6156 5.11503 17.4105C4.58815 16.238 4.97351 15.6106 6.26528 15.5866C8.41492 15.5439 10.564 15.5498 12.7107 15.5843C13.5855 15.5977 14.1638 16.0983 14.4989 16.9228C15.6597 19.7794 17.0842 22.4975 18.8678 25.0179C19.3432 25.6886 19.8286 26.3582 20.5186 26.8324C21.2811 27.3564 21.8624 27.1839 22.222 26.333C22.4519 25.7903 22.5513 25.2138 22.6004 24.6337C22.7711 22.6478 22.7916 20.6619 22.4969 18.6836C22.3127 17.4462 21.6156 16.6468 20.3818 16.4129C19.7537 16.2936 19.8455 16.0609 20.1508 15.7024C20.6806 15.0814 21.18 14.6977 22.1718 14.6977L29.6107 14.6966C30.7837 14.9258 31.0445 15.4521 31.2042 16.6328L31.2112 24.8974C31.1989 25.3547 31.4399 26.709 32.2609 27.0084C32.9176 27.2254 33.3532 26.6985 33.7462 26.281C35.5286 24.3892 36.7987 22.1548 37.9373 19.8432C38.4384 18.8239 38.8729 17.7678 39.294 16.7111C39.6057 15.9293 40.0934 15.5445 40.9752 15.5585L48.1364 15.5661C48.3469 15.5661 48.5627 15.5685 48.7714 15.603C49.9772 15.8106 50.3076 16.3298 49.9351 17.5076C49.348 19.3572 48.2048 20.8987 47.0867 22.4437C45.892 24.0957 44.6166 25.6933 43.4307 27.3534C42.3442 28.8762 42.4319 29.6411 43.7815 30.9598Z" fill="#C88C6A"/>
</g>
<defs>
<filter id="filter0_i" x="0" y="0" width="54.9689" height="58.9689" filterUnits="userSpaceOnUse" color-interpolation-filters="sRGB">
<feFlood flood-opacity="0" result="BackgroundImageFix"/>
<feBlend mode="normal" in="SourceGraphic" in2="BackgroundImageFix" result="shape"/>
<feColorMatrix in="SourceAlpha" type="matrix" values="0 0 0 0 0 0 0 0 0 0 0 0 0 0 0 0 0 0 127 0" result="hardAlpha"/>
<feOffset dy="4"/>
<feGaussianBlur stdDeviation="4.5"/>
<feComposite in2="hardAlpha" operator="arithmetic" k2="-1" k3="1"/>
<feColorMatrix type="matrix" values="0 0 0 0 0 0 0 0 0 0 0 0 0 0 0 0 0 0 0.25 0"/>
<feBlend mode="normal" in2="shape" result="effect1_innerShadow"/>
</filter>
</defs>
</svg>
